HIERARCHY
ROOT Hips
{
	OFFSET 0.00000 0.00000 0.00000
	CHANNELS 6 Xposition Yposition Zposition Zrotation Yrotation Xrotation 
	JOINT LHipJoint
	{
		OFFSET 0 0 0
		CHANNELS 3 Zrotation Yrotation Xrotation
		JOINT LeftUpLeg
		{
			OFFSET 1.37324 -1.83837 0.85674
			CHANNELS 3 Zrotation Yrotation Xrotation
			JOINT LeftLeg
			{
				OFFSET 2.53826 -6.97383 0.00000
				CHANNELS 3 Zrotation Yrotation Xrotation
				JOINT LeftFoot
				{
					OFFSET 2.65296 -7.28895 0.00000
					CHANNELS 3 Zrotation Yrotation Xrotation
					JOINT LeftToeBase
					{
						OFFSET 0.22100 -0.60718 2.29776
						CHANNELS 3 Zrotation Yrotation Xrotation
						End Site
						{
							OFFSET 0.00000 -0.00000 1.19228
						}
					}
				}
			}
		}
	}
	JOINT RHipJoint
	{
		OFFSET 0 0 0
		CHANNELS 3 Zrotation Yrotation Xrotation
		JOINT RightUpLeg
		{
			OFFSET -1.30156 -1.83836 0.85673
			CHANNELS 3 Zrotation Yrotation Xrotation
			JOINT RightLeg
			{
				OFFSET -2.63627 -7.24310 0.00000
				CHANNELS 3 Zrotation Yrotation Xrotation
				JOINT RightFoot
				{
					OFFSET -2.62024 -7.19904 0.00000
					CHANNELS 3 Zrotation Yrotation Xrotation
					JOINT RightToeBase
					{
						OFFSET -0.20765 -0.57052 2.42402
						CHANNELS 3 Zrotation Yrotation Xrotation
						End Site
						{
							OFFSET -0.00000 -0.00000 1.24980
						}
					}
				}
			}
		}
	}
	JOINT LowerBack
	{
		OFFSET 0 0 0
		CHANNELS 3 Zrotation Yrotation Xrotation
		JOINT Spine
		{
			OFFSET 0.05739 2.14162 -0.22815
			CHANNELS 3 Zrotation Yrotation Xrotation
			JOINT Spine1
			{
				OFFSET 0.02798 2.14167 0.08145
				CHANNELS 3 Zrotation Yrotation Xrotation
				JOINT Neck
				{
					OFFSET 0 0 0
					CHANNELS 3 Zrotation Yrotation Xrotation
					JOINT Neck1
					{
						OFFSET -0.07019 1.58903 0.32980
						CHANNELS 3 Zrotation Yrotation Xrotation
						JOINT Head
						{
							OFFSET -0.03205 1.65283 -0.21190
							CHANNELS 3 Zrotation Yrotation Xrotation
							End Site
							{
								OFFSET -0.00726 1.66788 -0.10849
							}
						}
					}
				}
				JOINT LeftShoulder
				{
					OFFSET 0 0 0
					CHANNELS 3 Zrotation Yrotation Xrotation
					JOINT LeftArm
					{
						OFFSET 3.92858 0.97533 -0.07938
						CHANNELS 3 Zrotation Yrotation Xrotation
						JOINT LeftForeArm
						{
							OFFSET 5.58345 -0.00000 -0.00000
							CHANNELS 3 Zrotation Yrotation Xrotation
							JOINT LeftHand
							{
								OFFSET 3.71087 -0.00000 0.00000
								CHANNELS 3 Zrotation Yrotation Xrotation
								JOINT LeftFingerBase
								{
									OFFSET 0 0 0
									CHANNELS 3 Zrotation Yrotation Xrotation
									JOINT LeftHandIndex1
									{
										OFFSET 0.56232 -0.00000 -0.00000
										CHANNELS 3 Zrotation Yrotation Xrotation
										End Site
										{
											OFFSET 0.45336 -0.00000 -0.00000
										}
									}
								}
								JOINT LThumb
								{
									OFFSET 0 0 0
									CHANNELS 3 Zrotation Yrotation Xrotation
									End Site
									{
										OFFSET 0.46028 -0.00000 0.46028
									}
								}
							}
						}
					}
				}
				JOINT RightShoulder
				{
					OFFSET 0 0 0
					CHANNELS 3 Zrotation Yrotation Xrotation
					JOINT RightArm
					{
						OFFSET -3.89897 1.08887 -0.22589
						CHANNELS 3 Zrotation Yrotation Xrotation
						JOINT RightForeArm
						{
							OFFSET -5.20357 -0.00000 -0.00000
							CHANNELS 3 Zrotation Yrotation Xrotation
							JOINT RightHand
							{
								OFFSET -3.64937 -0.00000 0.00000
								CHANNELS 3 Zrotation Yrotation Xrotation
								JOINT RightFingerBase
								{
									OFFSET 0 0 0
									CHANNELS 3 Zrotation Yrotation Xrotation
									JOINT RightHandIndex1
									{
										OFFSET -0.61800 -0.00000 -0.00000
										CHANNELS 3 Zrotation Yrotation Xrotation
										End Site
										{
											OFFSET -0.49824 -0.00000 -0.00000
										}
									}
								}
								JOINT RThumb
								{
									OFFSET 0 0 0
									CHANNELS 3 Zrotation Yrotation Xrotation
									End Site
									{
										OFFSET -0.50585 -0.00000 0.50585
									}
								}
							}
						}
					}
				}
			}
		}
	}
}
MOTION
Frames: 15
Frame Time: .0083333
-0.3306 15.5353 -9.4993 0 0 0 0 0 0 -21 0 0 0 0 0 0 0 0 0 0 0 0 0 0 21 0 0 0 0 0 0 0 0 0 0 0 0 0 0 0 0 0 0 0 0 0 0 -16 0 0 21 0 0 11 0 0 0 -8 0 0 0 0 0 0 0 0 0 0 0 0 0 0 0 0 0 0 0 0 8 0 0 0 0 0 0 0 0 0 0 0 0 0 0 0 0 0
-0.3306 15.5353 -9.4993 2.3977 13.6715 -13.6403 0.0000 0.0000 0.0000 -18.8076 -6.1321 -3.1162 16.8266 19.7568 80.6853 -0.6435 -18.4538 -6.0492 0.2719 -3.3543 -9.2668 0.0000 0.0000 0.0000 8.8103 5.6428 -32.6106 -2.6496 -10.1049 29.3172 0.3168 -10.3194 -6.8385 -0.1031 2.0709 -5.7016 -3.4743 -3.5487 15.0554 1.3099 -5.1536 2.6850 4.3144 -2.4716 -5.1268 -0.7588 1.1504 -19.4284 -4.8350 2.8753 17.8421 -1.1464 0.7607 8.8656 0.0000 -0.0000 0.0000 -72.5165 0.7125 54.9794 125.1259 -54.7816 -89.8869 -0.0000 0.0000 -6.2962 21.7028 -7.4531 -2.9554 -7.1250 0.0000 -0.0000 -3.7203 21.9713 2.0624 0.0000 -0.0000 0.0000 80.6095 -45.8991 24.3279 -57.8341 55.7046 -32.5453 0.0000 -0.0000 -8.0114 -32.8908 4.0896 -2.6407 7.1250 -0.0000 -0.0000 -4.6960 -25.1119 -2.2664
-0.3532 15.4800 -8.9804 2.9137 13.8573 -13.9322 0.0000 0.0000 0.0000 -18.7342 -5.8602 -3.0823 17.3133 19.8260 82.1227 -0.6387 -18.4913 -6.1612 0.0897 -1.9314 -5.3162 0.0000 0.0000 0.0000 8.9905 5.3585 -31.4962 -2.9666 -10.6408 31.0777 0.3314 -10.1427 -3.7895 -0.3488 3.7949 -10.5002 -4.1055 -3.2402 14.8695 1.1867 -4.8479 2.6535 4.4711 -2.3148 -5.0454 -1.1010 0.8902 -19.5169 -4.5781 2.5773 18.1126 -1.0433 0.6183 8.9595 -0.0000 0.0000 0.0000 -72.4978 1.1781 54.5566 125.3675 -54.7012 -90.0842 -0.0000 0.0000 -5.5475 21.2046 -7.3831 -2.8541 -7.1250 0.0000 -0.0000 -4.0833 22.0741 2.2551 -0.0000 0.0000 0.0000 79.7578 -45.2972 24.6740 -57.1964 55.5154 -32.0190 0.0000 -0.0000 -7.2880 -32.6308 4.0461 -2.5867 7.1250 -0.0000 -0.0000 -4.5050 -25.1776 -2.1668
-0.3816 15.5291 -8.5135 2.9566 13.9424 -14.1594 0.0000 0.0000 0.0000 -18.0758 -5.5974 -3.7649 17.7511 19.8783 83.4119 -0.5909 -17.9302 -6.0915 0.1002 -2.0413 -5.6199 0.0000 0.0000 0.0000 8.9902 6.1903 -31.6279 -3.4802 -11.4346 33.7598 0.0430 -10.5020 6.6578 -0.0733 1.7464 -4.8053 -4.2373 -2.9508 15.0634 1.2055 -4.4967 2.4477 4.5287 -2.1234 -5.3940 -1.3523 0.6164 -19.4949 -4.4682 2.2552 18.2361 -1.0080 0.4597 8.9879 -0.0000 -0.0000 0.0000 -72.5946 1.8354 54.0231 125.5827 -54.6288 -90.2598 -0.0000 0.0000 -4.9671 20.9421 -7.5345 -2.8728 -7.1250 0.0000 -0.0000 -4.2756 21.9273 2.3761 -0.0000 -0.0000 0.0000 78.9230 -44.5836 25.0019 -56.4093 55.2746 -31.3712 0.0000 -0.0000 -6.5224 -32.4872 3.7980 -2.4152 7.1250 -0.0000 -0.0000 -4.4163 -25.4779 -2.0930
-0.4051 15.5187 -8.0738 2.3995 13.9432 -14.5115 0.0000 0.0000 0.0000 -16.7833 -5.5556 -5.0410 18.3686 19.9361 85.2254 -0.6053 -18.2373 -6.2852 0.1072 -2.1112 -5.8132 0.0000 0.0000 0.0000 9.6334 6.7088 -32.3024 -4.1264 -12.3267 36.8978 0.3383 -14.1259 5.2218 -0.1672 -2.6342 7.2620 -3.6709 -2.7193 15.6427 1.3882 -4.1102 2.1606 4.3877 -1.9135 -6.0842 -1.5051 0.3529 -19.0767 -4.5538 1.9275 17.9442 -1.0531 0.2984 8.8074 -0.0000 -0.0000 0.0000 -72.9658 2.5850 53.4918 125.4916 -54.6595 -90.1855 -0.0000 0.0000 -4.0609 21.4774 -7.7998 -3.0565 -7.1250 0.0000 -0.0000 -3.8879 21.6135 2.1874 -0.0000 -0.0000 0.0000 78.2299 -43.7003 25.1399 -55.3816 54.9481 -30.5282 0.0000 -0.0000 -5.8793 -32.3627 3.5008 -2.2160 7.1250 -0.0000 -0.0000 -4.3447 -25.8344 -2.0227
-0.4237 15.4522 -7.6583 1.0766 13.7221 -14.8441 0.0000 0.0000 0.0000 -14.6342 -5.7490 -7.1523 19.1560 19.9829 87.5316 -0.6548 -19.1589 -6.7940 0.0744 -1.7602 -4.8433 0.0000 0.0000 0.0000 11.0521 7.5472 -33.5000 -4.9062 -13.2774 40.4161 0.3454 -13.5452 4.3757 -0.2558 -3.2539 8.9864 -2.2777 -2.5420 16.2045 1.7944 -3.6196 1.8384 3.9885 -1.6741 -6.8460 -1.5043 0.1055 -18.6221 -4.8771 1.6240 17.5982 -1.1985 0.1350 8.6073 0.0000 -0.0000 0.0000 -73.6150 3.3613 52.8110 125.3300 -54.7137 -90.0536 -0.0000 0.0000 -3.4359 21.6868 -8.0214 -3.1763 -7.1250 0.0000 -0.0000 -3.7385 21.3638 2.1241 0.0000 -0.0000 0.0000 77.7051 -42.4984 25.0950 -54.0494 54.5036 -29.4405 0.0000 -0.0000 -5.6289 -32.4266 3.0544 -1.9387 7.1250 -0.0000 -0.0000 -4.4250 -26.3580 -2.0060
-0.4301 15.4046 -7.2676 -1.1373 12.7457 -15.4386 0.0000 0.0000 0.0000 -11.4119 -5.5205 -9.4234 19.9530 19.9999 89.8625 -0.7354 -20.4642 -7.4304 0.0583 -1.5575 -4.2843 0.0000 0.0000 0.0000 14.2479 7.2845 -34.1665 -5.7966 -14.2283 44.1598 0.3168 -11.9295 2.7080 -0.0645 -1.6384 4.5074 0.0928 -2.3222 16.8371 2.5361 -2.8336 1.6774 3.3159 -1.3314 -7.5089 -1.8052 -0.1508 -18.6340 -4.9187 1.3672 17.6195 -1.1962 -0.0115 8.6118 -0.0000 0.0000 0.0000 -74.6704 4.0983 51.8559 125.0597 -54.8036 -89.8328 -0.0000 0.0000 -2.9006 21.8368 -8.0537 -3.2132 -7.1250 0.0000 -0.0000 -3.6302 21.3199 2.0660 -0.0000 0.0000 0.0000 77.0274 -40.7700 25.1057 -52.4238 53.9275 -28.1217 0.0000 -0.0000 -5.9718 -32.5950 2.8153 -1.7988 7.1250 -0.0000 -0.0000 -4.5697 -26.6335 -2.0424
-0.4189 15.3814 -6.9001 -3.5064 11.3567 -16.2342 0.0000 0.0000 0.0000 -8.1323 -4.9831 -11.6360 20.6677 19.9893 91.9526 -0.8107 -21.6169 -7.9942 0.0631 -1.6204 -4.4577 0.0000 0.0000 0.0000 17.4379 7.1693 -34.6751 -6.6434 -15.0241 47.5122 0.2913 -10.6199 1.1392 -0.0546 -1.5084 4.1489 2.8754 -2.0710 17.6218 3.3053 -1.8768 1.8051 2.3792 -0.9362 -7.9185 -2.2967 -0.4986 -19.0881 -4.6926 0.9965 17.5826 -1.0886 -0.2003 8.6708 -0.0000 0.0000 0.0000 -75.9583 4.5607 50.6597 124.6020 -54.9534 -89.4584 -0.0000 0.0000 -2.4508 21.8363 -7.8918 -3.1491 -7.1250 0.0000 -0.0000 -3.6283 21.4934 2.0506 -0.0000 0.0000 0.0000 76.3147 -38.2404 25.0292 -50.2941 53.1134 -26.4092 0.0000 -0.0000 -6.5341 -32.9172 2.5407 -1.6437 7.1250 -0.0000 -0.0000 -4.8345 -26.9464 -2.1259
-0.4057 15.3489 -6.5382 -5.0053 10.3210 -16.6838 0.0000 0.0000 0.0000 -6.1040 -4.6933 -14.2520 21.3074 19.9590 93.8250 -0.8453 -22.3158 -8.4687 0.0534 -1.4915 -4.1024 0.0000 0.0000 0.0000 19.4841 7.0891 -34.9486 -7.4373 -15.6894 50.5096 0.2537 -9.2194 -0.7709 -0.0579 -1.5529 4.2717 4.6382 -1.8391 17.9960 3.8664 -1.1613 2.0806 1.8202 -0.6333 -7.8618 -2.7152 -0.8068 -19.3733 -4.4759 0.6321 17.0365 -0.9905 -0.3669 8.5285 -0.0000 -0.0000 0.0000 -77.4268 4.9903 49.1072 123.8208 -55.2027 -88.8179 -0.0000 0.0000 -1.8132 22.4139 -7.7826 -3.1968 -7.1250 0.0000 -0.0000 -3.2069 21.5752 1.8057 -0.0000 -0.0000 0.0000 75.2601 -35.0428 25.3918 -47.6589 52.0065 -24.3167 0.0000 -0.0000 -7.7576 -33.5347 2.8561 -1.8914 7.1250 -0.0000 -0.0000 -5.2795 -26.5472 -2.3727
-0.4435 15.3498 -6.1556 -5.5702 10.1541 -17.0120 0.0000 0.0000 0.0000 -5.3214 -4.8861 -16.6882 21.7426 19.9270 95.1010 -0.8559 -22.7445 -8.8681 0.0301 -1.1199 -3.0787 0.0000 0.0000 0.0000 20.5700 6.7992 -34.5285 -8.1139 -16.2024 52.9717 0.2217 -8.3169 -3.2087 -0.0441 -1.3555 3.7276 4.6193 -1.5840 18.1747 4.2340 -0.7932 2.2797 2.1381 -0.4461 -7.7364 -2.8978 -1.0360 -18.9685 -4.2965 0.2694 16.1448 -0.9346 -0.5044 8.1508 -0.0000 0.0000 0.0000 -78.8563 5.8011 47.3919 122.6995 -55.5466 -87.8952 -0.0000 0.0000 -1.3596 22.8290 -7.6357 -3.2015 -7.1250 0.0000 -0.0000 -2.9023 21.7079 1.6251 -0.0000 0.0000 0.0000 74.0627 -31.7811 26.0142 -44.6893 50.6154 -21.9984 0.0000 -0.0000 -8.5751 -33.8097 2.9954 -2.0043 7.1250 -0.0000 -0.0000 -5.4763 -26.3690 -2.4848
-0.4957 15.3675 -5.7705 -4.5876 10.7179 -16.7115 0.0000 0.0000 0.0000 -6.7337 -5.5356 -19.4964 22.0194 19.9019 95.9136 -0.7464 -22.3787 -9.5253 0.0235 -0.9894 -2.7196 0.0000 0.0000 0.0000 19.8249 6.5025 -34.5689 -8.7634 -16.6530 55.2682 0.1973 -8.0588 -4.9038 -0.0157 -0.8090 2.2233 2.6463 -1.1727 17.9478 4.1836 -0.6609 2.2852 3.1626 -0.3257 -7.5834 -2.6406 -1.1975 -18.6659 -4.3540 -0.0432 15.7828 -1.0279 -0.6305 7.9722 0.0000 -0.0000 0.0000 -80.1797 6.7572 45.6216 121.0050 -56.0361 -86.4938 -0.0000 0.0000 -1.3854 23.3940 -7.2985 -3.1457 -7.1250 0.0000 -0.0000 -2.4836 22.0383 1.3715 0.0000 -0.0000 0.0000 72.8645 -28.4062 26.6370 -41.3430 48.8457 -19.4445 0.0000 -0.0000 -8.6089 -33.7017 3.1519 -2.1002 7.1250 -0.0000 -0.0000 -5.3817 -26.1867 -2.4646
-0.5249 15.3681 -5.3946 -4.0488 11.2420 -16.7379 0.0000 0.0000 0.0000 -7.8854 -6.1522 -22.2513 22.2210 19.8813 96.5061 -0.6309 -21.7997 -10.0189 0.0166 -0.8308 -2.2833 0.0000 0.0000 0.0000 19.4374 6.0297 -34.3946 -9.3547 -17.0307 57.3090 0.1531 -7.7878 -6.6588 -0.0229 -0.9766 2.6844 1.3786 -0.9762 17.9701 4.1482 -0.6529 2.3084 3.8459 -0.2861 -7.5560 -2.4347 -1.2451 -18.6838 -4.1871 -0.1825 16.1281 -1.0262 -0.6742 8.0873 -0.0000 0.0000 0.0000 -81.3412 7.6849 43.7111 118.6450 -56.6603 -84.5292 -0.0000 0.0000 -2.0606 24.2331 -6.5775 -2.9515 -7.1250 0.0000 -0.0000 -1.8526 22.7742 0.9915 -0.0000 0.0000 0.0000 71.7346 -24.9050 27.1673 -38.0143 46.8484 -16.9760 0.0000 -0.0000 -7.4354 -33.3249 2.8728 -1.8874 7.1250 -0.0000 -0.0000 -5.1192 -26.5360 -2.3014
-0.5493 15.3754 -5.0201 -4.2060 11.7907 -17.5839 0.0000 0.0000 0.0000 -8.4565 -6.7483 -24.1184 22.2539 19.8778 96.6029 -0.5214 -21.3377 -10.5939 0.0129 -0.7342 -2.0178 0.0000 0.0000 0.0000 19.7421 5.4240 -33.1605 -9.8785 -17.3410 59.0815 0.0746 -7.4855 -8.8078 -0.0525 -1.4787 4.0671 0.7511 -0.9603 18.6801 4.3493 -0.7185 2.4990 4.4601 -0.2948 -7.7219 -2.2554 -1.3131 -18.8230 -4.2090 -0.2955 16.5873 -1.0830 -0.7295 8.2636 -0.0000 0.0000 0.0000 -82.4505 8.3788 41.7974 115.4470 -57.4059 -81.8458 -0.0000 0.0000 -3.1360 24.7933 -6.2421 -2.8753 -7.1250 0.0000 -0.0000 -1.4319 23.1102 0.7552 -0.0000 0.0000 0.0000 70.8549 -21.3773 26.9770 -35.0538 44.8505 -14.8513 0.0000 -0.0000 -4.7023 -32.6171 1.9315 -1.2356 7.1250 -0.0000 -0.0000 -4.6477 -27.6778 -1.9630
-0.5615 15.3670 -4.6513 -4.9909 11.8985 -18.6408 0.0000 0.0000 0.0000 -8.2665 -7.0488 -25.8980 22.1889 19.8847 96.4118 -0.4420 -21.2168 -11.2171 0.0065 -0.5225 -1.4358 0.0000 0.0000 0.0000 20.9681 4.7398 -31.6059 -10.2907 -17.5701 60.4556 -0.0112 -7.2968 -10.6563 -0.0246 -1.0117 2.7810 1.1060 -0.9941 19.4461 4.6262 -0.6403 2.6647 4.5629 -0.2595 -7.9646 -2.1804 -1.3930 -18.5409 -4.1300 -0.4465 16.7663 -1.0864 -0.7882 8.2719 -0.0000 -0.0000 0.0000 -83.4385 8.9250 39.9807 111.6885 -58.1458 -78.6659 -0.0000 0.0000 -4.6254 25.0141 -5.6827 -2.6453 -7.1250 0.0000 -0.0000 -1.2548 23.7137 0.6443 -0.0000 -0.0000 0.0000 70.3769 -17.9698 26.2684 -32.4153 42.8758 -13.0225 0.0000 -0.0000 -0.9240 -32.1130 1.0992 -0.6898 7.1250 -0.0000 -0.0000 -4.3107 -28.6715 -1.7184
-0.5604 15.3636 -4.2896 -6.2371 11.4979 -18.9658 0.0000 0.0000 0.0000 -7.3423 -7.1181 -28.6266 22.0115 19.9027 95.8904 -0.3270 -21.0636 -12.1145 0.0280 -1.0807 -2.9708 0.0000 0.0000 0.0000 22.7481 4.6587 -30.7840 -10.6303 -17.7494 61.5751 -0.1040 -7.1607 -12.3183 -0.0197 -0.9069 2.4926 2.2526 -0.9946 19.3402 4.9991 -0.3645 2.5619 4.2430 -0.1526 -8.0457 -2.1629 -1.4936 -17.9649 -4.0306 -0.6294 16.8483 -1.0730 -0.8588 8.1958 -0.0000 -0.0000 0.0000 -84.0961 9.5607 38.4924 107.7659 -58.7731 -75.3224 -0.0000 0.0000 -6.1302 24.9076 -5.5500 -2.5714 -7.1250 0.0000 -0.0000 -1.3308 23.8649 0.6788 -0.0000 -0.0000 0.0000 70.1524 -15.0249 25.4085 -30.3552 41.1959 -11.6429 0.0000 0.0000 2.7166 -31.9053 0.4839 -0.3013 7.1250 -0.0000 -0.0000 -4.1828 -29.3981 -1.5948
